<mxfile host="app.diagrams.net" agent="Mozilla/5.0 (Windows NT 10.0; Win64; x64) AppleWebKit/537.36 (KHTML, like Gecko) Chrome/134.0.0.0 Safari/537.36" version="26.1.1">
  <diagram id="vxmu8e-D6JKtbziN8auy" name="Page-1">
    <mxGraphModel dx="2079" dy="633" grid="1" gridSize="10" guides="1" tooltips="1" connect="1" arrows="1" fold="1" page="1" pageScale="1" pageWidth="827" pageHeight="1169" math="0" shadow="0">
      <root>
        <mxCell id="0" />
        <mxCell id="1" parent="0" />
        <mxCell id="KGo7ExIiG6yFK3656a-n-1" value="&lt;div style=&quot;background-color: rgb(245, 245, 245); font-family: Consolas, &amp;quot;Courier New&amp;quot;, monospace; font-weight: normal; font-size: 14px; line-height: 19px; white-space: pre; color: rgb(56, 58, 66);&quot;&gt;&lt;div style=&quot;color: light-dark(rgb(56, 58, 66), rgb(185, 187, 194));&quot;&gt;&lt;span style=&quot;color: rgb(64, 120, 242);&quot;&gt;v4l2_async_nf_init&lt;/span&gt;&lt;span style=&quot;color: rgb(56, 58, 66);&quot;&gt;(&lt;/span&gt;&lt;span style=&quot;color: rgb(228, 86, 73);&quot;&gt;ntf&lt;/span&gt;&lt;span style=&quot;color: rgb(56, 58, 66);&quot;&gt;, &lt;/span&gt;&lt;span style=&quot;color: rgb(56, 58, 66);&quot;&gt;&amp;amp;&lt;/span&gt;&lt;span style=&quot;color: rgb(0, 175, 175);&quot;&gt;rkisp1&lt;/span&gt;&lt;span style=&quot;color: rgb(56, 58, 66);&quot;&gt;-&amp;gt;&lt;/span&gt;&lt;span style=&quot;color: rgb(228, 86, 73);&quot;&gt;v4l2_dev&lt;/span&gt;&lt;span style=&quot;color: rgb(56, 58, 66);&quot;&gt;);&lt;/span&gt;&lt;/div&gt;&lt;div style=&quot;&quot;&gt;&lt;span style=&quot;color: rgb(56, 58, 66);&quot;&gt;&lt;div style=&quot;color: light-dark(rgb(56, 58, 66), rgb(185, 187, 194)); line-height: 19px;&quot;&gt;&lt;span style=&quot;color: rgb(228, 86, 73);&quot;&gt;ntf&lt;/span&gt;-&amp;gt;&lt;span style=&quot;color: rgb(228, 86, 73);&quot;&gt;ops&lt;/span&gt; = &amp;amp;&lt;span style=&quot;color: rgb(228, 86, 73);&quot;&gt;rkisp1_subdev_notifier_ops&lt;/span&gt;;&lt;/div&gt;&lt;div style=&quot;line-height: 19px;&quot;&gt;&lt;div style=&quot;line-height: 19px;&quot;&gt;&lt;div style=&quot;&quot;&gt;&lt;span style=&quot;color: rgb(172, 166, 0);&quot;&gt;v4l2_async_nf_add_fwnode&lt;/span&gt;&lt;span style=&quot;color: light-dark(rgb(56, 58, 66), rgb(185, 187, 194)); background-color: light-dark(rgb(245, 245, 245), rgb(26, 26, 26));&quot;&gt;(&lt;/span&gt;&lt;span style=&quot;background-color: light-dark(rgb(245, 245, 245), rgb(26, 26, 26)); color: rgb(228, 86, 73);&quot;&gt;ntf&lt;/span&gt;&lt;span style=&quot;color: light-dark(rgb(56, 58, 66), rgb(185, 187, 194)); background-color: light-dark(rgb(245, 245, 245), rgb(26, 26, 26));&quot;&gt;, &lt;/span&gt;&lt;span style=&quot;background-color: light-dark(rgb(245, 245, 245), rgb(26, 26, 26)); color: rgb(228, 86, 73);&quot;&gt;source&lt;/span&gt;&lt;span style=&quot;color: light-dark(rgb(56, 58, 66), rgb(185, 187, 194)); background-color: light-dark(rgb(245, 245, 245), rgb(26, 26, 26));&quot;&gt;, &lt;/span&gt;&lt;span style=&quot;background-color: light-dark(rgb(245, 245, 245), rgb(26, 26, 26)); color: rgb(166, 38, 164);&quot;&gt;struct&lt;/span&gt;&lt;span style=&quot;color: light-dark(rgb(56, 58, 66), rgb(185, 187, 194)); background-color: light-dark(rgb(245, 245, 245), rgb(26, 26, 26));&quot;&gt; &lt;/span&gt;&lt;span style=&quot;background-color: light-dark(rgb(245, 245, 245), rgb(26, 26, 26)); color: rgb(193, 132, 1);&quot;&gt;rkisp1_sensor_async&lt;/span&gt;&lt;span style=&quot;color: light-dark(rgb(56, 58, 66), rgb(185, 187, 194)); background-color: light-dark(rgb(245, 245, 245), rgb(26, 26, 26));&quot;&gt;);&lt;/span&gt;&lt;/div&gt;&lt;/div&gt;&lt;/div&gt;&lt;div style=&quot;color: light-dark(rgb(56, 58, 66), rgb(185, 187, 194)); line-height: 19px;&quot;&gt;&lt;div style=&quot;line-height: 19px;&quot;&gt;&lt;span style=&quot;color: rgb(64, 120, 242);&quot;&gt;v4l2_async_nf_register()&lt;/span&gt;&lt;/div&gt;&lt;/div&gt;&lt;/span&gt;&lt;/div&gt;&lt;/div&gt;" style="text;whiteSpace=wrap;html=1;align=center;" vertex="1" parent="1">
          <mxGeometry x="90" y="190" width="510" height="90" as="geometry" />
        </mxCell>
        <mxCell id="KGo7ExIiG6yFK3656a-n-2" value="v4l2 driver:&lt;div&gt;1. 初始化async notifier&lt;br&gt;&lt;div&gt;2. 注册notifier回调函数&lt;/div&gt;&lt;div&gt;3. 对每个parse到的fwnode注册v4l2_async_connection, 并把connection挂入notifier-&amp;gt;waiting_list等待注册&lt;/div&gt;&lt;div&gt;这一步也可以使用&amp;nbsp;&lt;font style=&quot;color: rgb(0, 0, 0);&quot;&gt;&lt;span style=&quot;background-color: rgb(245, 245, 245); font-family: Consolas, &amp;quot;Courier New&amp;quot;, monospace; font-size: 14px; white-space: pre;&quot;&gt;v4l2_async_nf_add_fwnode_remote/&lt;/span&gt;&lt;span style=&quot;background-color: rgb(245, 245, 245); font-family: Consolas, &amp;quot;Courier New&amp;quot;, monospace; font-size: 14px; white-space: pre;&quot;&gt;v4l2_async_nf_add_i2c&lt;/span&gt;&lt;/font&gt;&lt;/div&gt;&lt;div&gt;4. 注册async notifier&lt;/div&gt;&lt;/div&gt;" style="text;html=1;align=left;verticalAlign=middle;whiteSpace=wrap;rounded=0;" vertex="1" parent="1">
          <mxGeometry x="10" y="100" width="570" height="70" as="geometry" />
        </mxCell>
        <mxCell id="KGo7ExIiG6yFK3656a-n-16" value="" style="edgeStyle=orthogonalEdgeStyle;rounded=0;orthogonalLoop=1;jettySize=auto;html=1;" edge="1" parent="1" source="KGo7ExIiG6yFK3656a-n-4" target="KGo7ExIiG6yFK3656a-n-15">
          <mxGeometry relative="1" as="geometry" />
        </mxCell>
        <mxCell id="KGo7ExIiG6yFK3656a-n-4" value="&lt;div style=&quot;color: #383a42;background-color: #f5f5f5;font-family: Consolas, &#39;Courier New&#39;, monospace;font-weight: normal;font-size: 14px;line-height: 19px;white-space: pre;&quot;&gt;&lt;div&gt;&lt;span style=&quot;color: #4078f2;&quot;&gt;v4l2_async_register_subdev_sensor&lt;/span&gt;&lt;/div&gt;&lt;/div&gt;" style="text;whiteSpace=wrap;html=1;" vertex="1" parent="1">
          <mxGeometry x="-335" y="300" width="260" height="30" as="geometry" />
        </mxCell>
        <mxCell id="KGo7ExIiG6yFK3656a-n-7" style="edgeStyle=orthogonalEdgeStyle;rounded=0;orthogonalLoop=1;jettySize=auto;html=1;exitX=1;exitY=0.5;exitDx=0;exitDy=0;entryX=0;entryY=0.5;entryDx=0;entryDy=0;" edge="1" parent="1" source="KGo7ExIiG6yFK3656a-n-5" target="KGo7ExIiG6yFK3656a-n-6">
          <mxGeometry relative="1" as="geometry" />
        </mxCell>
        <mxCell id="KGo7ExIiG6yFK3656a-n-9" style="edgeStyle=orthogonalEdgeStyle;rounded=0;orthogonalLoop=1;jettySize=auto;html=1;exitX=1;exitY=0.5;exitDx=0;exitDy=0;entryX=0;entryY=0.5;entryDx=0;entryDy=0;" edge="1" parent="1" source="KGo7ExIiG6yFK3656a-n-5" target="KGo7ExIiG6yFK3656a-n-8">
          <mxGeometry relative="1" as="geometry" />
        </mxCell>
        <mxCell id="KGo7ExIiG6yFK3656a-n-5" value="&lt;span style=&quot;color: rgb(64, 120, 242); font-family: Consolas, &amp;quot;Courier New&amp;quot;, monospace; font-size: 14px; font-style: normal; font-variant-ligatures: normal; font-variant-caps: normal; font-weight: 400; letter-spacing: normal; orphans: 2; text-align: center; text-indent: 0px; text-transform: none; widows: 2; word-spacing: 0px; -webkit-text-stroke-width: 0px; white-space: pre; background-color: rgb(245, 245, 245); text-decoration-thickness: initial; text-decoration-style: initial; text-decoration-color: initial; display: inline !important; float: none;&quot;&gt;v4l2_async_nf_register&lt;/span&gt;" style="text;whiteSpace=wrap;html=1;" vertex="1" parent="1">
          <mxGeometry x="100" y="370" width="180" height="30" as="geometry" />
        </mxCell>
        <mxCell id="KGo7ExIiG6yFK3656a-n-13" value="" style="edgeStyle=orthogonalEdgeStyle;rounded=0;orthogonalLoop=1;jettySize=auto;html=1;" edge="1" parent="1" source="KGo7ExIiG6yFK3656a-n-6" target="KGo7ExIiG6yFK3656a-n-12">
          <mxGeometry relative="1" as="geometry" />
        </mxCell>
        <mxCell id="KGo7ExIiG6yFK3656a-n-6" value="&lt;span style=&quot;color: rgb(64, 120, 242); font-family: Consolas, &amp;quot;Courier New&amp;quot;, monospace; font-size: 14px; font-style: normal; font-variant-ligatures: normal; font-variant-caps: normal; font-weight: 400; letter-spacing: normal; orphans: 2; text-align: left; text-indent: 0px; text-transform: none; widows: 2; word-spacing: 0px; -webkit-text-stroke-width: 0px; white-space: pre; background-color: rgb(245, 245, 245); text-decoration-thickness: initial; text-decoration-style: initial; text-decoration-color: initial; display: inline !important; float: none;&quot;&gt;v4l2_async_nf_try_all_subdevs&lt;/span&gt;" style="text;whiteSpace=wrap;html=1;" vertex="1" parent="1">
          <mxGeometry x="340" y="340" width="230" height="30" as="geometry" />
        </mxCell>
        <mxCell id="KGo7ExIiG6yFK3656a-n-11" value="" style="edgeStyle=orthogonalEdgeStyle;rounded=0;orthogonalLoop=1;jettySize=auto;html=1;" edge="1" parent="1" source="KGo7ExIiG6yFK3656a-n-8" target="KGo7ExIiG6yFK3656a-n-10">
          <mxGeometry relative="1" as="geometry" />
        </mxCell>
        <mxCell id="KGo7ExIiG6yFK3656a-n-8" value="&lt;div style=&quot;color: #383a42;background-color: #f5f5f5;font-family: Consolas, &#39;Courier New&#39;, monospace;font-weight: normal;font-size: 14px;line-height: 19px;white-space: pre;&quot;&gt;&lt;div&gt;&lt;span style=&quot;color: #4078f2;&quot;&gt;v4l2_async_nf_try_complete&lt;/span&gt;&lt;/div&gt;&lt;/div&gt;" style="text;whiteSpace=wrap;html=1;" vertex="1" parent="1">
          <mxGeometry x="339.9999999999999" y="400" width="205" height="30" as="geometry" />
        </mxCell>
        <mxCell id="KGo7ExIiG6yFK3656a-n-10" value="&lt;div style=&quot;color: #383a42;background-color: #f5f5f5;font-family: Consolas, &#39;Courier New&#39;, monospace;font-weight: normal;font-size: 14px;line-height: 19px;white-space: pre;&quot;&gt;&lt;div&gt;&lt;span style=&quot;color: #00afaf;&quot;&gt;n&lt;/span&gt;&lt;span style=&quot;color: #383a42;&quot;&gt;-&amp;gt;&lt;/span&gt;&lt;span style=&quot;color: #e45649;&quot;&gt;ops&lt;/span&gt;&lt;span style=&quot;color: #383a42;&quot;&gt;-&amp;gt;&lt;/span&gt;&lt;span style=&quot;color: #e45649;&quot;&gt;complete&lt;/span&gt;&lt;/div&gt;&lt;/div&gt;" style="text;whiteSpace=wrap;html=1;" vertex="1" parent="1">
          <mxGeometry x="579.9999999999999" y="400" width="135" height="30" as="geometry" />
        </mxCell>
        <mxCell id="KGo7ExIiG6yFK3656a-n-12" value="&lt;div style=&quot;background-color: rgb(245, 245, 245); font-family: Consolas, &amp;quot;Courier New&amp;quot;, monospace; font-weight: normal; font-size: 14px; line-height: 19px; white-space: pre; color: rgb(56, 58, 66);&quot;&gt;&lt;div style=&quot;&quot;&gt;&lt;span style=&quot;color: rgb(0, 175, 175);&quot;&gt;n&lt;/span&gt;&lt;span style=&quot;color: rgb(56, 58, 66);&quot;&gt;-&amp;gt;&lt;/span&gt;&lt;span style=&quot;color: rgb(228, 86, 73);&quot;&gt;ops&lt;/span&gt;&lt;span style=&quot;color: rgb(56, 58, 66);&quot;&gt;-&amp;gt;&lt;/span&gt;&lt;span style=&quot;color: rgb(56, 58, 66);&quot;&gt;&lt;font color=&quot;#e45649&quot;&gt;bound&lt;/font&gt;&lt;/span&gt;&lt;/div&gt;&lt;/div&gt;" style="text;whiteSpace=wrap;html=1;" vertex="1" parent="1">
          <mxGeometry x="600" y="340" width="109" height="30" as="geometry" />
        </mxCell>
        <mxCell id="KGo7ExIiG6yFK3656a-n-14" value="&lt;font style=&quot;font-size: 11px; color: rgb(153, 153, 153);&quot;&gt;所有async subdev注册完后调用.complete&lt;/font&gt;" style="text;html=1;align=center;verticalAlign=middle;resizable=0;points=[];autosize=1;strokeColor=none;fillColor=none;" vertex="1" parent="1">
          <mxGeometry x="580" y="370" width="230" height="30" as="geometry" />
        </mxCell>
        <mxCell id="KGo7ExIiG6yFK3656a-n-15" value="&lt;div style=&quot;color: #383a42;background-color: #f5f5f5;font-family: Consolas, &#39;Courier New&#39;, monospace;font-weight: normal;font-size: 14px;line-height: 19px;white-space: pre;&quot;&gt;&lt;div&gt;&lt;span style=&quot;color: #4078f2;&quot;&gt;list_add&lt;/span&gt;&lt;span style=&quot;color: #383a42;&quot;&gt;(&lt;/span&gt;&lt;span style=&quot;color: #383a42;&quot;&gt;&amp;amp;&lt;/span&gt;&lt;span style=&quot;color: #00afaf;&quot;&gt;sd&lt;/span&gt;&lt;span style=&quot;color: #383a42;&quot;&gt;-&amp;gt;&lt;/span&gt;&lt;span style=&quot;color: #e45649;&quot;&gt;async_list&lt;/span&gt;&lt;span style=&quot;color: #383a42;&quot;&gt;, &lt;/span&gt;&lt;span style=&quot;color: #383a42;&quot;&gt;&amp;amp;&lt;/span&gt;&lt;span style=&quot;color: #e45649;&quot;&gt;subdev_list&lt;/span&gt;&lt;span style=&quot;color: #383a42;&quot;&gt;);&lt;/span&gt;&lt;/div&gt;&lt;/div&gt;" style="text;whiteSpace=wrap;html=1;" vertex="1" parent="1">
          <mxGeometry x="-360.0000000000001" y="370" width="310" height="30" as="geometry" />
        </mxCell>
        <mxCell id="KGo7ExIiG6yFK3656a-n-17" value="" style="curved=1;endArrow=classic;html=1;rounded=0;exitX=1;exitY=0.5;exitDx=0;exitDy=0;entryX=0;entryY=0;entryDx=0;entryDy=0;" edge="1" parent="1" source="KGo7ExIiG6yFK3656a-n-15" target="KGo7ExIiG6yFK3656a-n-12">
          <mxGeometry width="50" height="50" relative="1" as="geometry">
            <mxPoint x="-110" y="540" as="sourcePoint" />
            <mxPoint x="-60" y="490" as="targetPoint" />
            <Array as="points">
              <mxPoint x="250" y="290" />
            </Array>
          </mxGeometry>
        </mxCell>
      </root>
    </mxGraphModel>
  </diagram>
</mxfile>
